<svg width="100" height="100" viewBox="0 0 100 100" fill="none" xmlns="http://www.w3.org/2000/svg">
<rect width="100" height="100" fill="#FFCEDC"/>
<path d="M47.1133 64.9999C47.4059 65.5066 47.8267 65.9274 48.3334 66.2199C48.8401 66.5124 49.4149 66.6664 50 66.6664C50.5851 66.6664 51.1599 66.5124 51.6666 66.2199C52.1733 65.9274 52.5941 65.5066 52.8866 64.9999M66.6666 43.3333C66.6666 39.4999 65.3333 36.1666 63.3333 33.3333M36.6666 33.3333C34.6666 36.1666 33.3333 39.4999 33.3333 43.3333M35.4366 55.5433C35.2189 55.7819 35.0752 56.0787 35.0231 56.3974C34.9709 56.7162 35.0125 57.0433 35.1428 57.3389C35.2731 57.6345 35.4865 57.8858 35.7571 58.0624C36.0276 58.2389 36.3436 58.333 36.6666 58.3333H63.3333C63.6563 58.3334 63.9724 58.2396 64.2431 58.0634C64.5138 57.8872 64.7275 57.6362 64.8581 57.3408C64.9888 57.0454 65.0308 56.7184 64.979 56.3996C64.9273 56.0807 64.784 55.7838 64.5666 55.5449C62.35 53.2599 60 50.8316 60 43.3333C60 40.6811 58.9464 38.1375 57.071 36.2622C55.1957 34.3868 52.6521 33.3333 50 33.3333C47.3478 33.3333 44.8043 34.3868 42.9289 36.2622C41.0535 38.1375 40 40.6811 40 43.3333C40 50.8316 37.6483 53.2599 35.4366 55.5433Z" stroke="#FD0951" stroke-width="1.25" stroke-linecap="round" stroke-linejoin="round"/>
</svg>
