<svg width="42" height="42" viewBox="0 0 42 42" fill="none" xmlns="http://www.w3.org/2000/svg">
<path d="M2.1035 14.5773C4.57785 9.31141 8.99856 5.21358 9.86044 4.74547C11.0745 4.08608 18.0482 0.999925 19.341 1C23.7358 1.00025 28.8217 2.4046 30.9764 3.8091C33.2634 5.29979 35.1711 8.29812 37.3622 10.9009C40.4572 14.5774 40.9133 19.7075 40.8881 23.0046C40.8578 26.9695 37.6093 32.6401 35.7168 34.7092C33.6214 37.0003 30.0206 39.996 24.5123 40.7956C19.7467 41.4874 11.8339 40.4301 7.70563 37.5183C5.35065 35.8573 1.42089 29.8638 1.24149 26.2819C1.09921 23.4412 0.157321 18.7192 2.1035 14.5773Z" fill="#FFCEDC" stroke="#FD0951" stroke-width="2" stroke-linecap="round" stroke-dasharray="8 8"/>
</svg>
