<svg width="100" height="100" viewBox="0 0 100 100" fill="none" xmlns="http://www.w3.org/2000/svg">
<rect width="100" height="100" rx="4" fill="#FFCEDC" fill-opacity="0.5"/>
<path d="M66.6666 58.3333C66.6666 59.2174 66.3155 60.0652 65.6903 60.6904C65.0652 61.3155 64.2174 61.6667 63.3333 61.6667H41.38C40.496 61.6669 39.6483 62.0182 39.0233 62.6433L35.3533 66.3133C35.1878 66.4788 34.977 66.5915 34.7475 66.6371C34.5179 66.6828 34.28 66.6593 34.0638 66.5698C33.8476 66.4802 33.6628 66.3286 33.5328 66.134C33.4028 65.9394 33.3333 65.7107 33.3333 65.4767V38.3333C33.3333 37.4493 33.6845 36.6014 34.3096 35.9763C34.9347 35.3512 35.7826 35 36.6666 35H63.3333C64.2174 35 65.0652 35.3512 65.6903 35.9763C66.3155 36.6014 66.6666 37.4493 66.6666 38.3333V58.3333Z" stroke="#FD0951" stroke-width="1.25" stroke-linecap="round" stroke-linejoin="round"/>
<path d="M42.5 45.8333C42.5 46.9783 42.9416 48.1383 43.6616 48.9067L48.6766 54.3467C48.86 54.5705 49.092 54.7495 49.355 54.87C49.5618 54.9567 49.7839 55.0008 50.0082 54.9997C50.2324 54.9986 50.4541 54.9522 50.66 54.8633C50.9169 54.7428 51.1436 54.5663 51.3233 54.3467L56.3366 48.9067C57.0882 48.0596 57.5023 46.9658 57.5 45.8333C57.5 44.9588 57.2248 44.1065 56.7135 43.397C56.2022 42.6876 55.4806 42.157 54.6509 41.8805C53.8213 41.6039 52.9257 41.5954 52.0909 41.8562C51.2562 42.1169 50.5247 42.6337 50 43.3333C49.4753 42.6337 48.7437 42.1169 47.909 41.8562C47.0743 41.5954 46.1787 41.6039 45.349 41.8805C44.5194 42.157 43.7978 42.6876 43.2865 43.397C42.7751 44.1065 42.5 44.9588 42.5 45.8333Z" stroke="#FD0951" stroke-width="1.25" stroke-linecap="round" stroke-linejoin="round"/>
</svg>
