<svg width="100" height="100" viewBox="0 0 100 100" fill="none" xmlns="http://www.w3.org/2000/svg">
<rect width="100" height="100" rx="4" fill="#FFE6EE"/>
<path d="M52.3333 33.3333H40C39.1159 33.3333 38.2681 33.6844 37.643 34.3096C37.0178 34.9347 36.6666 35.7825 36.6666 36.6666V63.3333C36.6666 64.2173 37.0178 65.0652 37.643 65.6903C38.2681 66.3154 39.1159 66.6666 40 66.6666H60C60.884 66.6666 61.7319 66.3154 62.357 65.6903C62.9821 65.0652 63.3333 64.2173 63.3333 63.3333V50.9999M33.3333 39.9999H40M33.3333 46.6666H40M33.3333 53.3333H40M33.3333 59.9999H40M65.63 39.3766C66.2939 38.7127 66.6669 37.8122 66.6669 36.8733C66.6669 35.9343 66.2939 35.0338 65.63 34.3699C64.9661 33.706 64.0656 33.333 63.1266 33.333C62.1877 33.333 61.2872 33.706 60.6233 34.3699L52.2733 42.7233C51.8771 43.1193 51.587 43.6088 51.43 44.1466L50.035 48.9299C49.9931 49.0733 49.9906 49.2254 50.0277 49.3701C50.0648 49.5148 50.1401 49.6469 50.2457 49.7525C50.3514 49.8581 50.4834 49.9334 50.6282 49.9705C50.7729 50.0076 50.9249 50.0051 51.0683 49.9633L55.8516 48.5683C56.3894 48.4112 56.8789 48.1212 57.275 47.7249L65.63 39.3766Z" stroke="#FD0951" stroke-width="1.25" stroke-linecap="round" stroke-linejoin="round"/>
</svg>
